<mxfile host="app.diagrams.net" modified="2021-10-21T02:39:55.162Z" agent="5.0 (Macintosh; Intel Mac OS X 10_15_7) AppleWebKit/537.36 (KHTML, like Gecko) Chrome/86.0.4240.193 Safari/537.36" etag="_iMhwezRHsZgu6cruBUr" version="15.5.6" type="github">
  <diagram id="Zo02RNWAGuZj_4NM1UVz" name="Page-1">
    <mxGraphModel dx="1773" dy="536" grid="1" gridSize="10" guides="1" tooltips="1" connect="1" arrows="1" fold="1" page="1" pageScale="1" pageWidth="827" pageHeight="1169" math="0" shadow="0">
      <root>
        <mxCell id="0" />
        <mxCell id="1" parent="0" />
        <mxCell id="2DUY0KZcRuQeelkK5_3L-4" style="edgeStyle=orthogonalEdgeStyle;rounded=0;orthogonalLoop=1;jettySize=auto;html=1;exitX=1;exitY=0.5;exitDx=0;exitDy=0;entryX=0;entryY=0.5;entryDx=0;entryDy=0;" edge="1" parent="1" source="2DUY0KZcRuQeelkK5_3L-1" target="2DUY0KZcRuQeelkK5_3L-2">
          <mxGeometry relative="1" as="geometry" />
        </mxCell>
        <mxCell id="2DUY0KZcRuQeelkK5_3L-5" style="edgeStyle=orthogonalEdgeStyle;rounded=0;orthogonalLoop=1;jettySize=auto;html=1;exitX=1;exitY=0.5;exitDx=0;exitDy=0;entryX=0;entryY=0.5;entryDx=0;entryDy=0;" edge="1" parent="1" source="2DUY0KZcRuQeelkK5_3L-1" target="2DUY0KZcRuQeelkK5_3L-3">
          <mxGeometry relative="1" as="geometry" />
        </mxCell>
        <mxCell id="2DUY0KZcRuQeelkK5_3L-1" value="过户保证金扣款" style="rounded=0;whiteSpace=wrap;html=1;" vertex="1" parent="1">
          <mxGeometry x="-20" y="200" width="120" height="60" as="geometry" />
        </mxCell>
        <mxCell id="2DUY0KZcRuQeelkK5_3L-2" value="&lt;pre&gt;TransferDeductForCarStrategy&lt;/pre&gt;&lt;pre&gt;（由于枚举值比较被改错了，因此这个策略不会走到，&lt;/pre&gt;&lt;pre&gt;不管是拍品还是店铺都是店铺冻结策略）&lt;/pre&gt;" style="rounded=0;whiteSpace=wrap;html=1;" vertex="1" parent="1">
          <mxGeometry x="240" y="120" width="320" height="80" as="geometry" />
        </mxCell>
        <mxCell id="2DUY0KZcRuQeelkK5_3L-20" style="edgeStyle=orthogonalEdgeStyle;rounded=0;orthogonalLoop=1;jettySize=auto;html=1;exitX=1;exitY=0.5;exitDx=0;exitDy=0;entryX=0;entryY=0.5;entryDx=0;entryDy=0;" edge="1" parent="1" source="2DUY0KZcRuQeelkK5_3L-3" target="2DUY0KZcRuQeelkK5_3L-8">
          <mxGeometry relative="1" as="geometry" />
        </mxCell>
        <mxCell id="2DUY0KZcRuQeelkK5_3L-3" value="&lt;pre&gt;TransferDeductForShopStrategy&lt;/pre&gt;" style="rounded=0;whiteSpace=wrap;html=1;" vertex="1" parent="1">
          <mxGeometry x="240" y="270" width="320" height="70" as="geometry" />
        </mxCell>
        <mxCell id="2DUY0KZcRuQeelkK5_3L-6" value="按照拍品冻结" style="text;html=1;align=center;verticalAlign=middle;resizable=0;points=[];autosize=1;strokeColor=none;fillColor=none;" vertex="1" parent="1">
          <mxGeometry x="125" y="110" width="90" height="20" as="geometry" />
        </mxCell>
        <mxCell id="2DUY0KZcRuQeelkK5_3L-7" value="按照店铺冻结" style="text;html=1;align=center;verticalAlign=middle;resizable=0;points=[];autosize=1;strokeColor=none;fillColor=none;" vertex="1" parent="1">
          <mxGeometry x="120" y="320" width="90" height="20" as="geometry" />
        </mxCell>
        <mxCell id="2DUY0KZcRuQeelkK5_3L-21" style="edgeStyle=orthogonalEdgeStyle;rounded=0;orthogonalLoop=1;jettySize=auto;html=1;exitX=1;exitY=0.5;exitDx=0;exitDy=0;entryX=0;entryY=0.5;entryDx=0;entryDy=0;" edge="1" parent="1" source="2DUY0KZcRuQeelkK5_3L-8" target="2DUY0KZcRuQeelkK5_3L-9">
          <mxGeometry relative="1" as="geometry" />
        </mxCell>
        <mxCell id="2DUY0KZcRuQeelkK5_3L-23" style="edgeStyle=orthogonalEdgeStyle;rounded=0;orthogonalLoop=1;jettySize=auto;html=1;" edge="1" parent="1" source="2DUY0KZcRuQeelkK5_3L-8" target="2DUY0KZcRuQeelkK5_3L-10">
          <mxGeometry relative="1" as="geometry" />
        </mxCell>
        <mxCell id="2DUY0KZcRuQeelkK5_3L-8" value="查询是否有冻结记录" style="rounded=0;whiteSpace=wrap;html=1;" vertex="1" parent="1">
          <mxGeometry x="620" y="272.5" width="160" height="65" as="geometry" />
        </mxCell>
        <mxCell id="2DUY0KZcRuQeelkK5_3L-9" value="返回无冻结记录" style="rounded=0;whiteSpace=wrap;html=1;fillColor=#f8cecc;strokeColor=#b85450;" vertex="1" parent="1">
          <mxGeometry x="880" y="271.5" width="133" height="67.5" as="geometry" />
        </mxCell>
        <mxCell id="2DUY0KZcRuQeelkK5_3L-13" style="edgeStyle=orthogonalEdgeStyle;rounded=0;orthogonalLoop=1;jettySize=auto;html=1;entryX=0.5;entryY=0;entryDx=0;entryDy=0;" edge="1" parent="1" source="2DUY0KZcRuQeelkK5_3L-10" target="2DUY0KZcRuQeelkK5_3L-11">
          <mxGeometry relative="1" as="geometry" />
        </mxCell>
        <mxCell id="2DUY0KZcRuQeelkK5_3L-15" style="edgeStyle=orthogonalEdgeStyle;rounded=0;orthogonalLoop=1;jettySize=auto;html=1;exitX=1;exitY=0.5;exitDx=0;exitDy=0;entryX=0.5;entryY=0;entryDx=0;entryDy=0;" edge="1" parent="1" source="2DUY0KZcRuQeelkK5_3L-10" target="2DUY0KZcRuQeelkK5_3L-12">
          <mxGeometry relative="1" as="geometry" />
        </mxCell>
        <mxCell id="2DUY0KZcRuQeelkK5_3L-10" value="账户余额是否大于冻结金额" style="rounded=0;whiteSpace=wrap;html=1;" vertex="1" parent="1">
          <mxGeometry x="620" y="410" width="160" height="65" as="geometry" />
        </mxCell>
        <mxCell id="2DUY0KZcRuQeelkK5_3L-25" style="edgeStyle=orthogonalEdgeStyle;rounded=0;orthogonalLoop=1;jettySize=auto;html=1;exitX=0.5;exitY=1;exitDx=0;exitDy=0;entryX=0.5;entryY=0;entryDx=0;entryDy=0;" edge="1" parent="1" source="2DUY0KZcRuQeelkK5_3L-11" target="2DUY0KZcRuQeelkK5_3L-18">
          <mxGeometry relative="1" as="geometry" />
        </mxCell>
        <mxCell id="2DUY0KZcRuQeelkK5_3L-11" value="往t_deposit_charger插入扣款单&lt;br&gt;减少账户的总额和余额" style="rounded=0;whiteSpace=wrap;html=1;" vertex="1" parent="1">
          <mxGeometry x="596.25" y="520" width="207.5" height="60" as="geometry" />
        </mxCell>
        <mxCell id="2DUY0KZcRuQeelkK5_3L-28" style="edgeStyle=orthogonalEdgeStyle;rounded=0;orthogonalLoop=1;jettySize=auto;html=1;exitX=1;exitY=0.5;exitDx=0;exitDy=0;entryX=0;entryY=0.5;entryDx=0;entryDy=0;" edge="1" parent="1" source="2DUY0KZcRuQeelkK5_3L-12" target="2DUY0KZcRuQeelkK5_3L-27">
          <mxGeometry relative="1" as="geometry" />
        </mxCell>
        <mxCell id="2DUY0KZcRuQeelkK5_3L-32" style="edgeStyle=orthogonalEdgeStyle;rounded=0;orthogonalLoop=1;jettySize=auto;html=1;entryX=0.5;entryY=0;entryDx=0;entryDy=0;" edge="1" parent="1" source="2DUY0KZcRuQeelkK5_3L-12" target="2DUY0KZcRuQeelkK5_3L-30">
          <mxGeometry relative="1" as="geometry" />
        </mxCell>
        <mxCell id="2DUY0KZcRuQeelkK5_3L-12" value="冻结金额是否大于&lt;br&gt;账户余额+这个冻结记录冻结的钱" style="rounded=0;whiteSpace=wrap;html=1;" vertex="1" parent="1">
          <mxGeometry x="890" y="515" width="200" height="70" as="geometry" />
        </mxCell>
        <mxCell id="2DUY0KZcRuQeelkK5_3L-16" value="是" style="text;html=1;align=center;verticalAlign=middle;resizable=0;points=[];autosize=1;strokeColor=none;fillColor=none;" vertex="1" parent="1">
          <mxGeometry x="705" y="480" width="30" height="20" as="geometry" />
        </mxCell>
        <mxCell id="2DUY0KZcRuQeelkK5_3L-17" value="否" style="text;html=1;align=center;verticalAlign=middle;resizable=0;points=[];autosize=1;strokeColor=none;fillColor=none;" vertex="1" parent="1">
          <mxGeometry x="813.5" y="455" width="30" height="20" as="geometry" />
        </mxCell>
        <mxCell id="2DUY0KZcRuQeelkK5_3L-26" style="edgeStyle=orthogonalEdgeStyle;rounded=0;orthogonalLoop=1;jettySize=auto;html=1;" edge="1" parent="1" source="2DUY0KZcRuQeelkK5_3L-18" target="2DUY0KZcRuQeelkK5_3L-19">
          <mxGeometry relative="1" as="geometry" />
        </mxCell>
        <mxCell id="2DUY0KZcRuQeelkK5_3L-18" value="调用财务生成收款单" style="rounded=0;whiteSpace=wrap;html=1;" vertex="1" parent="1">
          <mxGeometry x="596.25" y="630" width="207.5" height="60" as="geometry" />
        </mxCell>
        <mxCell id="2DUY0KZcRuQeelkK5_3L-19" value="生成收款单成功&lt;br&gt;将扣款单状态更新为成功" style="rounded=0;whiteSpace=wrap;html=1;" vertex="1" parent="1">
          <mxGeometry x="596.25" y="730" width="207.5" height="60" as="geometry" />
        </mxCell>
        <mxCell id="2DUY0KZcRuQeelkK5_3L-22" value="否" style="text;html=1;align=center;verticalAlign=middle;resizable=0;points=[];autosize=1;strokeColor=none;fillColor=none;" vertex="1" parent="1">
          <mxGeometry x="815" y="270" width="30" height="20" as="geometry" />
        </mxCell>
        <mxCell id="2DUY0KZcRuQeelkK5_3L-24" value="是" style="text;html=1;align=center;verticalAlign=middle;resizable=0;points=[];autosize=1;strokeColor=none;fillColor=none;" vertex="1" parent="1">
          <mxGeometry x="705" y="360" width="30" height="20" as="geometry" />
        </mxCell>
        <mxCell id="2DUY0KZcRuQeelkK5_3L-27" value="余额+冻结金额不足" style="rounded=0;whiteSpace=wrap;html=1;fillColor=#f8cecc;strokeColor=#b85450;" vertex="1" parent="1">
          <mxGeometry x="1160" y="516" width="133" height="67.5" as="geometry" />
        </mxCell>
        <mxCell id="2DUY0KZcRuQeelkK5_3L-29" value="否" style="text;html=1;align=center;verticalAlign=middle;resizable=0;points=[];autosize=1;strokeColor=none;fillColor=none;" vertex="1" parent="1">
          <mxGeometry x="1110" y="510" width="30" height="20" as="geometry" />
        </mxCell>
        <mxCell id="2DUY0KZcRuQeelkK5_3L-33" style="edgeStyle=orthogonalEdgeStyle;rounded=0;orthogonalLoop=1;jettySize=auto;html=1;exitX=0.5;exitY=1;exitDx=0;exitDy=0;entryX=0.5;entryY=0;entryDx=0;entryDy=0;" edge="1" parent="1" source="2DUY0KZcRuQeelkK5_3L-30" target="2DUY0KZcRuQeelkK5_3L-31">
          <mxGeometry relative="1" as="geometry" />
        </mxCell>
        <mxCell id="2DUY0KZcRuQeelkK5_3L-30" value="添加扣款单&lt;br&gt;解冻保证金记录（账户余额增加）" style="rounded=0;whiteSpace=wrap;html=1;" vertex="1" parent="1">
          <mxGeometry x="890" y="625" width="200" height="70" as="geometry" />
        </mxCell>
        <mxCell id="2DUY0KZcRuQeelkK5_3L-36" style="edgeStyle=orthogonalEdgeStyle;rounded=0;orthogonalLoop=1;jettySize=auto;html=1;exitX=1;exitY=0.5;exitDx=0;exitDy=0;" edge="1" parent="1" source="2DUY0KZcRuQeelkK5_3L-31">
          <mxGeometry relative="1" as="geometry">
            <mxPoint x="1140" y="760" as="targetPoint" />
          </mxGeometry>
        </mxCell>
        <mxCell id="2DUY0KZcRuQeelkK5_3L-52" style="edgeStyle=orthogonalEdgeStyle;rounded=0;orthogonalLoop=1;jettySize=auto;html=1;" edge="1" parent="1" source="2DUY0KZcRuQeelkK5_3L-31" target="2DUY0KZcRuQeelkK5_3L-39">
          <mxGeometry relative="1" as="geometry" />
        </mxCell>
        <mxCell id="2DUY0KZcRuQeelkK5_3L-31" value="冻结金额&amp;gt;账户余额" style="rounded=0;whiteSpace=wrap;html=1;" vertex="1" parent="1">
          <mxGeometry x="890" y="725" width="200" height="70" as="geometry" />
        </mxCell>
        <mxCell id="2DUY0KZcRuQeelkK5_3L-37" style="edgeStyle=orthogonalEdgeStyle;rounded=0;orthogonalLoop=1;jettySize=auto;html=1;exitX=0.5;exitY=1;exitDx=0;exitDy=0;entryX=0.5;entryY=0;entryDx=0;entryDy=0;" edge="1" parent="1" source="2DUY0KZcRuQeelkK5_3L-34" target="2DUY0KZcRuQeelkK5_3L-35">
          <mxGeometry relative="1" as="geometry" />
        </mxCell>
        <mxCell id="2DUY0KZcRuQeelkK5_3L-34" value="将解冻的记录重新冻结&lt;br&gt;扣款单状态更为扣款失败" style="rounded=0;whiteSpace=wrap;html=1;" vertex="1" parent="1">
          <mxGeometry x="1141" y="725" width="200" height="70" as="geometry" />
        </mxCell>
        <mxCell id="2DUY0KZcRuQeelkK5_3L-35" value="过户保证金不足" style="rounded=0;whiteSpace=wrap;html=1;fillColor=#f8cecc;strokeColor=#b85450;" vertex="1" parent="1">
          <mxGeometry x="1141" y="840" width="200" height="70" as="geometry" />
        </mxCell>
        <mxCell id="2DUY0KZcRuQeelkK5_3L-38" value="是" style="text;html=1;align=center;verticalAlign=middle;resizable=0;points=[];autosize=1;strokeColor=none;fillColor=none;" vertex="1" parent="1">
          <mxGeometry x="1095" y="730" width="30" height="20" as="geometry" />
        </mxCell>
        <mxCell id="2DUY0KZcRuQeelkK5_3L-51" style="edgeStyle=orthogonalEdgeStyle;rounded=0;orthogonalLoop=1;jettySize=auto;html=1;exitX=0.5;exitY=1;exitDx=0;exitDy=0;entryX=0.5;entryY=0;entryDx=0;entryDy=0;" edge="1" parent="1" source="2DUY0KZcRuQeelkK5_3L-39" target="2DUY0KZcRuQeelkK5_3L-44">
          <mxGeometry relative="1" as="geometry" />
        </mxCell>
        <mxCell id="2DUY0KZcRuQeelkK5_3L-39" value="减少账户的总额和余额" style="rounded=0;whiteSpace=wrap;html=1;" vertex="1" parent="1">
          <mxGeometry x="890" y="840" width="200" height="70" as="geometry" />
        </mxCell>
        <mxCell id="2DUY0KZcRuQeelkK5_3L-48" value="" style="edgeStyle=orthogonalEdgeStyle;rounded=0;orthogonalLoop=1;jettySize=auto;html=1;" edge="1" parent="1" source="2DUY0KZcRuQeelkK5_3L-40" target="2DUY0KZcRuQeelkK5_3L-41">
          <mxGeometry relative="1" as="geometry" />
        </mxCell>
        <mxCell id="2DUY0KZcRuQeelkK5_3L-40" value="调用财务生成收款单" style="rounded=0;whiteSpace=wrap;html=1;" vertex="1" parent="1">
          <mxGeometry x="890" y="1180" width="200" height="70" as="geometry" />
        </mxCell>
        <mxCell id="2DUY0KZcRuQeelkK5_3L-41" value="生成收款单成功&lt;br&gt;将扣款单状态更新为成功" style="rounded=0;whiteSpace=wrap;html=1;" vertex="1" parent="1">
          <mxGeometry x="886.25" y="1280" width="207.5" height="60" as="geometry" />
        </mxCell>
        <mxCell id="2DUY0KZcRuQeelkK5_3L-47" value="" style="edgeStyle=orthogonalEdgeStyle;rounded=0;orthogonalLoop=1;jettySize=auto;html=1;" edge="1" parent="1" source="2DUY0KZcRuQeelkK5_3L-42" target="2DUY0KZcRuQeelkK5_3L-40">
          <mxGeometry relative="1" as="geometry" />
        </mxCell>
        <mxCell id="2DUY0KZcRuQeelkK5_3L-42" value="以账户的可用余额为冻结金额&lt;br&gt;再次生成一条过户冻结记录" style="rounded=0;whiteSpace=wrap;html=1;" vertex="1" parent="1">
          <mxGeometry x="890" y="1070" width="200" height="70" as="geometry" />
        </mxCell>
        <mxCell id="2DUY0KZcRuQeelkK5_3L-43" value="是" style="text;html=1;align=center;verticalAlign=middle;resizable=0;points=[];autosize=1;strokeColor=none;fillColor=none;" vertex="1" parent="1">
          <mxGeometry x="995" y="590" width="30" height="20" as="geometry" />
        </mxCell>
        <mxCell id="2DUY0KZcRuQeelkK5_3L-45" style="edgeStyle=orthogonalEdgeStyle;rounded=0;orthogonalLoop=1;jettySize=auto;html=1;exitX=0.5;exitY=1;exitDx=0;exitDy=0;entryX=0.5;entryY=0;entryDx=0;entryDy=0;" edge="1" parent="1" source="2DUY0KZcRuQeelkK5_3L-44" target="2DUY0KZcRuQeelkK5_3L-42">
          <mxGeometry relative="1" as="geometry" />
        </mxCell>
        <mxCell id="2DUY0KZcRuQeelkK5_3L-49" style="edgeStyle=orthogonalEdgeStyle;rounded=0;orthogonalLoop=1;jettySize=auto;html=1;exitX=1;exitY=0.5;exitDx=0;exitDy=0;entryX=1;entryY=0.5;entryDx=0;entryDy=0;" edge="1" parent="1" source="2DUY0KZcRuQeelkK5_3L-44" target="2DUY0KZcRuQeelkK5_3L-40">
          <mxGeometry relative="1" as="geometry" />
        </mxCell>
        <mxCell id="2DUY0KZcRuQeelkK5_3L-44" value="过户冻结方式是否为店铺冻结" style="rounded=0;whiteSpace=wrap;html=1;" vertex="1" parent="1">
          <mxGeometry x="890" y="960" width="200" height="70" as="geometry" />
        </mxCell>
        <mxCell id="2DUY0KZcRuQeelkK5_3L-46" value="是" style="text;html=1;align=center;verticalAlign=middle;resizable=0;points=[];autosize=1;strokeColor=none;fillColor=none;" vertex="1" parent="1">
          <mxGeometry x="995" y="1040" width="30" height="20" as="geometry" />
        </mxCell>
        <mxCell id="2DUY0KZcRuQeelkK5_3L-50" value="否，拍品冻结不会再次冻" style="text;html=1;align=center;verticalAlign=middle;resizable=0;points=[];autosize=1;strokeColor=none;fillColor=none;" vertex="1" parent="1">
          <mxGeometry x="1140" y="1100" width="150" height="20" as="geometry" />
        </mxCell>
      </root>
    </mxGraphModel>
  </diagram>
</mxfile>
